<svg id="Capa_3" data-name="Capa 3" xmlns="http://www.w3.org/2000/svg" xmlns:xlink="http://www.w3.org/1999/xlink" viewBox="0 0 1685 209.9"><defs><style>.cls-1{fill:url(#Degradado_sin_nombre_39);}.cls-2{fill:url(#Degradado_sin_nombre_39-2);}.cls-3{fill:url(#Degradado_sin_nombre_39-3);}.cls-4{fill:url(#Degradado_sin_nombre_39-4);}.cls-5{fill:url(#Degradado_sin_nombre_39-5);}.cls-6{fill:url(#Degradado_sin_nombre_39-6);}.cls-7{fill:#fff;}</style><linearGradient id="Degradado_sin_nombre_39" x1="1060" y1="-164" x2="1060" y2="-164" gradientUnits="userSpaceOnUse"><stop offset="0" stop-color="#8032fb"/><stop offset="0.2" stop-color="#8032fb"/><stop offset="0.5" stop-color="#9334f2"/><stop offset="0.82" stop-color="#a035eb"/><stop offset="1" stop-color="#d133e7"/></linearGradient><linearGradient id="Degradado_sin_nombre_39-2" x1="1688" y1="77" x2="1688" y2="77" xlink:href="#Degradado_sin_nombre_39"/><linearGradient id="Degradado_sin_nombre_39-3" x1="265" y1="977" x2="265" y2="977" xlink:href="#Degradado_sin_nombre_39"/><linearGradient id="Degradado_sin_nombre_39-4" x1="1783" y1="158" x2="1783" y2="158" xlink:href="#Degradado_sin_nombre_39"/><linearGradient id="Degradado_sin_nombre_39-5" x1="570" y1="968" x2="570" y2="968" xlink:href="#Degradado_sin_nombre_39"/><linearGradient id="Degradado_sin_nombre_39-6" x1="1705" y1="1002" x2="1705" y2="1002" xlink:href="#Degradado_sin_nombre_39"/></defs><title>wave-pixeland-9</title><path class="cls-1" d="M1060-164Z" transform="translate(0 -1)"/><path class="cls-2" d="M1688,77" transform="translate(0 -1)"/><path class="cls-3" d="M265,977Z" transform="translate(0 -1)"/><path class="cls-4" d="M1783,158" transform="translate(0 -1)"/><path class="cls-5" d="M570,968Z" transform="translate(0 -1)"/><path class="cls-6" d="M1705,1002" transform="translate(0 -1)"/><path class="cls-7" d="M1685,1V32a263.82,263.82,0,0,0-75,9c-82.23,22.33-95.37,70.38-153,89-80.64,26.06-112.36-49.48-210-40-97.94,9.51-103.39,89.12-199,115-119.91,32.45-163.56-78.63-331-98-172.32-19.94-219.48,86.91-389,78C249.59,180.88,135.41,151.49,0,26V1Z" transform="translate(0 -1)"/></svg>