<svg id="Capa_3" data-name="Capa 3" xmlns="http://www.w3.org/2000/svg" xmlns:xlink="http://www.w3.org/1999/xlink" viewBox="0 0 1444.97 154.1"><defs><style>.cls-1{fill:url(#Degradado_sin_nombre_39);}.cls-2{fill:url(#Degradado_sin_nombre_39-2);}.cls-3{fill:url(#Degradado_sin_nombre_39-3);}.cls-4{fill:url(#Degradado_sin_nombre_39-4);}.cls-5{fill:url(#Degradado_sin_nombre_39-5);}.cls-6{fill:url(#Degradado_sin_nombre_39-6);}.cls-7{fill:#fff;}</style><linearGradient id="Degradado_sin_nombre_39" x1="1060" y1="-189" x2="1060" y2="-189" gradientUnits="userSpaceOnUse"><stop offset="0" stop-color="#8032fb"/><stop offset="0.2" stop-color="#8032fb"/><stop offset="0.5" stop-color="#9334f2"/><stop offset="0.82" stop-color="#a035eb"/><stop offset="1" stop-color="#d133e7"/></linearGradient><linearGradient id="Degradado_sin_nombre_39-2" x1="1688" y1="52" x2="1688" y2="52" xlink:href="#Degradado_sin_nombre_39"/><linearGradient id="Degradado_sin_nombre_39-3" x1="265" y1="952" x2="265" y2="952" xlink:href="#Degradado_sin_nombre_39"/><linearGradient id="Degradado_sin_nombre_39-4" x1="1783" y1="133" x2="1783" y2="133" xlink:href="#Degradado_sin_nombre_39"/><linearGradient id="Degradado_sin_nombre_39-5" x1="570" y1="943" x2="570" y2="943" xlink:href="#Degradado_sin_nombre_39"/><linearGradient id="Degradado_sin_nombre_39-6" x1="1705" y1="977" x2="1705" y2="977" xlink:href="#Degradado_sin_nombre_39"/></defs><title>wave-pixeland-10</title><path class="cls-1" d="M1060-189Z" transform="translate(-240.03 -31.9)"/><path class="cls-2" d="M1688,52" transform="translate(-240.03 -31.9)"/><path class="cls-3" d="M265,952Z" transform="translate(-240.03 -31.9)"/><path class="cls-4" d="M1783,133" transform="translate(-240.03 -31.9)"/><path class="cls-5" d="M570,943Z" transform="translate(-240.03 -31.9)"/><path class="cls-6" d="M1705,977" transform="translate(-240.03 -31.9)"/><path class="cls-7" d="M1685,140v46H240c41.49-24.53,56.19-48.53,108-61,100.54-24.22,135.58,44.47,237,29,100.16-15.28,96.34-86.92,198-115C899.42,6.84,932.38,94.4,1094,94c163-.4,192.26-88.81,297-52,75.61,26.57,105.62,88.54,207,101A283.64,283.64,0,0,0,1685,140Z" transform="translate(-240.03 -31.9)"/></svg>