<svg id="Capa_4" data-name="Capa 4" xmlns="http://www.w3.org/2000/svg" viewBox="0 0 1400 230"><defs><style>.cls-1{fill:#bcb8b8;}.cls-2{fill:#fff;}</style></defs><title>Mesa de trabajo 1</title><path class="cls-1" d="M1400,33V230H0V33A126.62,126.62,0,0,1,21.39,14.24l.14-.08A98.19,98.19,0,0,1,51.73,1.68l1.06-.15A60,60,0,0,1,59,1c46-1.56,57,50.89,108,61q2.82.55,5.55.9c.35,0,.7.09,1,.11,46.46,5.17,72-35.79,120.68-40.41l1.05-.09A98.56,98.56,0,0,1,316,23c40.83,5.14,48.79,28.07,86,47a112.29,112.29,0,0,0,42.75,12.28l1.07.07C515,87.12,579.13,26.94,664,22l2.2-.11,1.07,0C820.07,15.48,865.68,192.2,1022,220a226.92,226.92,0,0,0,31.1,3.34,243.11,243.11,0,0,0,38.48-1.63l.67-.09a270.68,270.68,0,0,0,28.74-5.15l.88-.2C1197.34,198.91,1291,149.24,1400,33Z"/><path class="cls-2" d="M1400,33V230H0V33A126.62,126.62,0,0,1,21.39,14.24l.14-.08A98.19,98.19,0,0,1,51.73,1.68l1.06-.15c38,5.55,51,51.12,98.21,60.47q2.82.55,5.55.9a71.14,71.14,0,0,0,17,.11c46.46,5.17,72-35.79,120.68-40.41l1.05-.09c1.54.13,3.09.29,4.67.49,40.83,5.14,48.79,28.07,86,47a112.29,112.29,0,0,0,42.75,12.28,117.21,117.21,0,0,0,17.07.07C515,87.12,579.13,26.94,664,22l2.2-.11,1.07,0C807.48,27.94,855.27,193.2,1006,220c1.1.2,5,.85,9.77,1.51a285.43,285.43,0,0,0,75.81.2l.67-.09c9.26-1.21,18.84-2.9,28.74-5.15l.88-.2C1197.34,198.91,1291,149.24,1400,33Z"/></svg>